<?xml version="1.0" encoding="UTF-8"?>
<svg width="18px" height="18px" viewBox="0 0 18 18" version="1.1" xmlns="http://www.w3.org/2000/svg" xmlns:xlink="http://www.w3.org/1999/xlink">
    <!-- Generator: Sketch 41.2 (35397) - http://www.bohemiancoding.com/sketch -->
    <title>Icons/Arrow left</title>
    <desc>Created with Sketch.</desc>
    <defs></defs>
    <g id="Symbols" stroke="none" stroke-width="1" fill="none" fill-rule="evenodd">
        <g id="@Icons/Arrow-left" fill="#FFFFFF">
            <path d="M17.1000204,8.55851129 C17.1000204,7.80072478 16.5990432,7.13208963 15.7974798,7.13208963 L7.95997043,7.13208963 L11.2218884,3.86692128 C11.4890762,3.59946722 11.6449358,3.23171788 11.6449358,2.85282463 C11.6449358,2.47393137 11.4890762,2.10618204 11.2218884,1.83872797 L10.3869264,1.01407795 C10.1197386,0.746623886 9.7634882,0.590609016 9.38497213,0.590609016 C9.00645605,0.590609016 8.6390728,0.746623886 8.37188498,1.01407795 L1.1244154,8.25762547 C0.86836041,8.52507953 0.712500849,8.89282887 0.712500849,9.27172212 C0.712500849,9.65061538 0.86836041,10.0183647 1.1244154,10.2746749 L8.37188498,17.5405102 C8.6390728,17.7968204 9.00645605,17.9528352 9.38497213,17.9528352 C9.7634882,17.9528352 10.1308715,17.7968204 10.3869264,17.5405102 L11.2218884,16.6935724 C11.4890762,16.4372622 11.6449358,16.0695129 11.6449358,15.6906196 C11.6449358,15.3117264 11.4890762,14.943977 11.2218884,14.6876669 L7.95997043,11.4113546 L15.7974798,11.4113546 C16.5990432,11.4113546 17.1000204,10.7427195 17.1000204,9.98493296 L17.1000204,8.55851129 Z" id="Icons/Arrow-left"></path>
        </g>
    </g>
</svg>