<?xml version="1.0" encoding="UTF-8"?>
<svg width="14px" height="14px" viewBox="0 0 14 14" version="1.1" xmlns="http://www.w3.org/2000/svg" xmlns:xlink="http://www.w3.org/1999/xlink">
    <!-- Generator: Sketch 41.2 (35397) - http://www.bohemiancoding.com/sketch -->
    <title>Icons/Close</title>
    <desc>Created with Sketch.</desc>
    <defs></defs>
    <g id="Symbols" stroke="none" stroke-width="1" fill="none" fill-rule="evenodd">
        <g id="@Icons/Close" transform="translate(1.000000, 1.000000)" fill="#FFFFFF">
            <path d="M13.0254079,9.9514995 C13.0254079,9.67290152 12.9140796,9.39430354 12.7136887,9.19371299 L9.44063795,5.91740072 L12.7136887,2.64108846 C12.9140796,2.44049791 13.0254079,2.16189993 13.0254079,1.88330195 C13.0254079,1.60470397 12.9140796,1.32610599 12.7136887,1.12551544 L11.1996244,-0.390057579 C10.9992336,-0.590648126 10.7209129,-0.702087319 10.4425923,-0.702087319 C10.1642716,-0.702087319 9.88595098,-0.590648126 9.68556012,-0.390057579 L6.41250934,2.88625468 L3.13945857,-0.390057579 C2.9390677,-0.590648126 2.66074706,-0.702087319 2.38242641,-0.702087319 C2.10410577,-0.702087319 1.82578513,-0.590648126 1.62539426,-0.390057579 L0.111329956,1.12551544 C-0.0890609074,1.32610599 -0.200389165,1.60470397 -0.200389165,1.88330195 C-0.200389165,2.16189993 -0.0890609074,2.44049791 0.111329956,2.64108846 L3.38438073,5.91740072 L0.111329956,9.19371299 C-0.0890609074,9.39430354 -0.200389165,9.67290152 -0.200389165,9.9514995 C-0.200389165,10.2300975 -0.0890609074,10.5086955 0.111329956,10.709286 L1.62539426,12.224859 C1.82578513,12.4254496 2.10410577,12.5368888 2.38242641,12.5368888 C2.66074706,12.5368888 2.9390677,12.4254496 3.13945857,12.224859 L6.41250934,8.94854677 L9.68556012,12.224859 C9.88595098,12.4254496 10.1642716,12.5368888 10.4425923,12.5368888 C10.7209129,12.5368888 10.9992336,12.4254496 11.1996244,12.224859 L12.7136887,10.709286 C12.9140796,10.5086955 13.0254079,10.2300975 13.0254079,9.9514995 L13.0254079,9.9514995 Z" id="Icons/Close"></path>
        </g>
    </g>
</svg>