<?xml version="1.0" encoding="UTF-8"?>
<svg width="18px" height="12px" viewBox="0 0 18 12" version="1.1" xmlns="http://www.w3.org/2000/svg" xmlns:xlink="http://www.w3.org/1999/xlink">
    <!-- Generator: Sketch 42 (36781) - http://www.bohemiancoding.com/sketch -->
    <title>Icons/Chevron right</title>
    <desc>Created with Sketch.</desc>
    <defs></defs>
    <g id="Symbols" stroke="none" stroke-width="1" fill="none" fill-rule="evenodd">
        <g id="@Icons/Chevron-right" transform="translate(0.000000, 1.000000)" fill="#3C5969">
            <path d="M17.4732823,2.1396189 C17.4732823,1.76072564 17.3174228,1.3929763 17.0613678,1.12552224 L16.2264058,0.289728298 C15.959218,0.0334181544 15.5918348,-0.122596715 15.2133187,-0.122596715 C14.8348026,-0.122596715 14.4674194,0.0334181544 14.2113644,0.289728298 L8.80081104,5.70567306 L3.39025772,0.289728298 C3.13420272,0.0334181544 2.76681947,-0.122596715 2.3883034,-0.122596715 C2.00978732,-0.122596715 1.64240407,0.0334181544 1.37521625,0.289728298 L0.551387145,1.12552224 C0.284199327,1.3929763 0.128339766,1.76072564 0.128339766,2.1396189 C0.128339766,2.51851215 0.284199327,2.88626149 0.551387145,3.14257163 L7.79885672,10.3972631 C8.05491172,10.6647171 8.42229497,10.820732 8.80081104,10.820732 C9.17932712,10.820732 9.54671037,10.6647171 9.81389819,10.3972631 L17.0613678,3.14257163 C17.3174228,2.88626149 17.4732823,2.51851215 17.4732823,2.1396189 L17.4732823,2.1396189 Z" id="Icons/Chevron-right"></path>
        </g>
    </g>
</svg>