<?xml version="1.0" encoding="UTF-8"?>
<svg width="9px" height="18px" viewBox="0 0 9 18" version="1.1" xmlns="http://www.w3.org/2000/svg" xmlns:xlink="http://www.w3.org/1999/xlink">
    <!-- Generator: Sketch 41.2 (35397) - http://www.bohemiancoding.com/sketch -->
    <title>Icons/Facebook</title>
    <desc>Created with Sketch.</desc>
    <defs></defs>
    <g id="Symbols" stroke="none" stroke-width="1" fill="none" fill-rule="evenodd">
        <g id="@Icons/Social-icons/Facebook" transform="translate(1.000000, 0.000000)" fill="#3C5969">
            <path d="M5.28840509,3.15371045 C5.72258529,3.15371045 6.31262506,3.23171788 6.79133657,3.33201316 C6.90266483,3.35430099 7.02512591,3.33201316 7.12532134,3.26514964 C7.22551677,3.19828612 7.29231373,3.08684693 7.30344655,2.97540774 L7.60403285,0.802343482 C7.6262985,0.601752936 7.50383742,0.39001847 7.29231373,0.334298873 C6.51301592,0.111420488 5.66692116,-1.87046762e-05 4.78742793,-1.87046762e-05 C2.12668257,-1.87046762e-05 0.83527478,1.27038809 0.83527478,3.90035304 L0.83527478,5.04817672 L-0.522929964,5.04817672 C-0.756719306,5.04817672 -0.945977344,5.23762335 -0.945977344,5.47164565 L-0.945977344,7.70042951 C-0.945977344,7.94559573 -0.756719306,8.13504236 -0.522929964,8.13504236 L0.83527478,8.13504236 L0.83527478,16.6935724 C0.83527478,16.9275947 1.02453282,17.1170413 1.25832216,17.1170413 L4.0415286,17.1170413 C4.26418512,17.1170413 4.45344316,16.9275947 4.45344316,16.6935724 L4.45344316,8.13504236 L6.70227396,8.13504236 C6.92493048,8.13504236 7.10305569,7.95673965 7.12532134,7.73386127 L7.2811809,5.50507741 C7.29231373,5.3824943 7.24778242,5.27105511 7.16985264,5.18190375 C7.09192286,5.0927524 6.98059461,5.04817672 6.86926635,5.04817672 L4.45344316,5.04817672 L4.45344316,4.06751183 C4.45344316,3.33201316 4.53137294,3.15371045 5.28840509,3.15371045 L5.28840509,3.15371045 Z" id="Icons/Facebook"></path>
        </g>
    </g>
</svg>