<?xml version="1.0" encoding="UTF-8"?>
<svg width="18px" height="15px" viewBox="0 0 18 15" version="1.1" xmlns="http://www.w3.org/2000/svg" xmlns:xlink="http://www.w3.org/1999/xlink">
    <!-- Generator: Sketch 41.2 (35397) - http://www.bohemiancoding.com/sketch -->
    <title>Icons/Menu hamburger</title>
    <desc>Created with Sketch.</desc>
    <defs></defs>
    <g id="Symbols" stroke="none" stroke-width="1" fill="none" fill-rule="evenodd">
        <g id="@Icons/Menu-hamburger" fill="#3C5969">
            <path d="M14,12.1245672 C14,11.73453 13.7356771,11.4113563 13.4166667,11.4113563 L0.583333333,11.4113563 C0.264322917,11.4113563 0,11.73453 0,12.1245672 L0,13.5509888 C0,13.941026 0.264322917,14.2641997 0.583333333,14.2641997 L13.4166667,14.2641997 C13.7356771,14.2641997 14,13.941026 14,13.5509888 L14,12.1245672 Z M17.1000204,6.41888049 C17.1000204,6.02884332 16.7771684,5.70566966 16.3875195,5.70566966 L0.712500849,5.70566966 C0.322851947,5.70566966 0,6.02884332 0,6.41888049 L0,7.84530216 C0,8.23533933 0.322851947,8.55851299 0.712500849,8.55851299 L16.3875195,8.55851299 C16.7771684,8.55851299 17.1000204,8.23533933 17.1000204,7.84530216 L17.1000204,6.41888049 Z M12,0.713193829 C12,0.323156654 11.7734375,-1.70042513e-05 11.5,-1.70042513e-05 L0.5,-1.70042513e-05 C0.2265625,-1.70042513e-05 0,0.323156654 0,0.713193829 L0,2.13961549 C0,2.52965267 0.2265625,2.85282633 0.5,2.85282633 L11.5,2.85282633 C11.7734375,2.85282633 12,2.52965267 12,2.13961549 L12,0.713193829 Z" id="Icons/Menu-hamburger"></path>
        </g>
    </g>
</svg>