<?xml version="1.0" encoding="UTF-8"?>
<svg width="18px" height="15px" viewBox="0 0 18 15" version="1.1" xmlns="http://www.w3.org/2000/svg" xmlns:xlink="http://www.w3.org/1999/xlink">
    <!-- Generator: Sketch 41.2 (35397) - http://www.bohemiancoding.com/sketch -->
    <title>Icons/Menu hamburger</title>
    <desc>Created with Sketch.</desc>
    <defs></defs>
    <g id="Symbols" stroke="none" stroke-width="1" fill="none" fill-rule="evenodd">
        <g id="@Icons/Menu-hamburger" fill="#FFFFFF">
            <path d="M17.1000204,12.1245672 C17.1000204,11.73453 16.7771684,11.4113563 16.3875195,11.4113563 L0.712500849,11.4113563 C0.322851947,11.4113563 0,11.73453 0,12.1245672 L0,13.5509888 C0,13.941026 0.322851947,14.2641997 0.712500849,14.2641997 L16.3875195,14.2641997 C16.7771684,14.2641997 17.1000204,13.941026 17.1000204,13.5509888 L17.1000204,12.1245672 Z M17.1000204,6.41888049 C17.1000204,6.02884332 16.7771684,5.70566966 16.3875195,5.70566966 L0.712500849,5.70566966 C0.322851947,5.70566966 0,6.02884332 0,6.41888049 L0,7.84530216 C0,8.23533933 0.322851947,8.55851299 0.712500849,8.55851299 L16.3875195,8.55851299 C16.7771684,8.55851299 17.1000204,8.23533933 17.1000204,7.84530216 L17.1000204,6.41888049 Z M17.1000204,0.713193829 C17.1000204,0.323156654 16.7771684,-1.70042513e-05 16.3875195,-1.70042513e-05 L0.712500849,-1.70042513e-05 C0.322851947,-1.70042513e-05 0,0.323156654 0,0.713193829 L0,2.13961549 C0,2.52965267 0.322851947,2.85282633 0.712500849,2.85282633 L16.3875195,2.85282633 C16.7771684,2.85282633 17.1000204,2.52965267 17.1000204,2.13961549 L17.1000204,0.713193829 Z" id="Icons/Menu-hamburger"></path>
        </g>
    </g>
</svg>