<?xml version="1.0" encoding="UTF-8"?>
<svg width="19px" height="19px" viewBox="0 0 19 19" version="1.1" xmlns="http://www.w3.org/2000/svg" xmlns:xlink="http://www.w3.org/1999/xlink">
    <!-- Generator: Sketch 41.2 (35397) - http://www.bohemiancoding.com/sketch -->
    <title>Icons/Search</title>
    <desc>Created with Sketch.</desc>
    <defs></defs>
    <g id="Symbols" stroke="none" stroke-width="1" fill="none" fill-rule="evenodd">
        <g id="@Icons/Search" fill="#3C5969">
            <path d="M18.5250221,17.1170413 C18.5250221,16.738148 18.3691625,16.3703987 18.1131075,16.1140886 L14.2945483,12.2917242 C15.1963072,10.9878857 15.6750187,9.42773699 15.6750187,7.84530046 C15.6750187,3.51031586 12.1681786,-1.87046762e-05 7.83750934,-1.87046762e-05 C3.50684012,-1.87046762e-05 0,3.51031586 0,7.84530046 C0,12.1802851 3.50684012,15.6906196 7.83750934,15.6906196 C9.4183706,15.6906196 10.9769662,15.2114311 12.2795068,14.3087736 L16.0980661,18.119994 C16.3541211,18.3874481 16.7215043,18.543463 17.1000204,18.543463 C17.8793182,18.543463 18.5250221,17.8971156 18.5250221,17.1170413 Z M12.8250153,7.84530046 C12.8250153,10.5978485 10.5873173,12.8377763 7.83750934,12.8377763 C5.08770138,12.8377763 2.8500034,10.5978485 2.8500034,7.84530046 C2.8500034,5.0927524 5.08770138,2.85282463 7.83750934,2.85282463 C10.5873173,2.85282463 12.8250153,5.0927524 12.8250153,7.84530046 Z" id="Icons/Search"></path>
        </g>
    </g>
</svg>