<?xml version="1.0" encoding="UTF-8"?>
<svg width="17px" height="17px" viewBox="0 0 17 17" version="1.1" xmlns="http://www.w3.org/2000/svg" xmlns:xlink="http://www.w3.org/1999/xlink">
    <!-- Generator: Sketch 42 (36781) - http://www.bohemiancoding.com/sketch -->
    <title>@Icons/Time clock</title>
    <desc>Created with Sketch.</desc>
    <defs></defs>
    <g id="Symbols" stroke="none" stroke-width="1" fill="none" fill-rule="evenodd">
        <g id="@Icons/Time-clock" fill="#FFFFFF">
            <path d="M12.1125144,8.91511671 C12.1125144,8.72567008 11.9455221,8.55851129 11.756264,8.55851129 L8.55001019,8.55851129 L8.55001019,4.63585171 C8.55001019,4.44640508 8.38301781,4.27924629 8.19375977,4.27924629 L7.48125892,4.27924629 C7.29200088,4.27924629 7.12500849,4.44640508 7.12500849,4.63585171 L7.12500849,9.62832754 C7.12500849,9.81777417 7.29200088,9.98493296 7.48125892,9.98493296 L11.756264,9.98493296 C11.9455221,9.98493296 12.1125144,9.81777417 12.1125144,9.62832754 L12.1125144,8.91511671 Z" id="Path"></path>
            <path d="M17.1000204,8.55851129 C17.1000204,13.2835331 13.2703283,17.1170413 8.55001019,17.1170413 C3.82969207,17.1170413 0,13.2835331 0,8.55851129 C0,3.83348952 3.82969207,-1.87046762e-05 8.55001019,-1.87046762e-05 C13.2703283,-1.87046762e-05 17.1000204,3.83348952 17.1000204,8.55851129 Z M15.1755164,8.55851129 C15.1755164,4.90567038 12.1992148,1.92640296 8.55001019,1.92640296 C4.90080559,1.92640296 1.92450396,4.90567038 1.92450396,8.55851129 C1.92450396,12.2113522 4.90080559,15.1906196 8.55001019,15.1906196 C12.1992148,15.1906196 15.1755164,12.2113522 15.1755164,8.55851129 Z" id="Path"></path>
        </g>
    </g>
</svg>