<?xml version="1.0" encoding="UTF-8"?>
<svg width="22px" height="18px" viewBox="0 0 22 18" version="1.1" xmlns="http://www.w3.org/2000/svg" xmlns:xlink="http://www.w3.org/1999/xlink">
    <!-- Generator: Sketch 41.2 (35397) - http://www.bohemiancoding.com/sketch -->
    <title>Icons/Twitter</title>
    <desc>Created with Sketch.</desc>
    <defs></defs>
    <g id="Symbols" stroke="none" stroke-width="1" fill="none" fill-rule="evenodd">
        <g id="@Icons/Social-icons/Twitter" transform="translate(1.000000, 0.000000)" fill="#3C5969">
            <path d="M20.640571,2.29562866 C20.640571,2.10618204 20.4847114,1.93902325 20.2843206,1.93902325 C20.1729923,1.93902325 19.4048273,2.26219691 19.2044365,2.3179165 C19.4716243,2.00588676 20.0839297,1.05865363 20.0839297,0.657472532 C20.0839297,0.468025904 19.9280701,0.300867115 19.7276793,0.300867115 C19.6720151,0.300867115 19.6052182,0.323154954 19.5495541,0.356586712 C18.7925219,0.768911725 18.0688882,1.09208538 17.2227935,1.27038809 C16.3878315,0.468025904 15.2522833,-1.87046762e-05 14.0833366,-1.87046762e-05 C11.6118493,-1.87046762e-05 9.58567499,2.01703068 9.58567499,4.50212468 C9.58567499,4.68042739 9.59680781,4.86987401 9.63020629,5.04817672 C7.18098462,4.83644226 4.85422403,3.81120168 3.02844061,2.17304555 C2.58312758,1.77186446 2.2046115,1.33725161 1.80382977,0.891494837 C1.71476717,0.791199563 1.63683739,0.757767805 1.50324348,0.757767805 C1.38078239,0.757767805 1.28058696,0.84691916 1.22492283,0.936070514 C0.824141105,1.52669823 0.612617415,2.48507529 0.612617415,3.19828612 C0.612617415,4.23467062 0.96886784,5.24876727 1.63683739,6.05112946 C1.4253137,5.98426594 1.10246175,5.77253147 0.913203711,5.77253147 C0.67941437,5.77253147 0.479023506,5.93969026 0.479023506,6.17371257 C0.479023506,7.73386127 1.33625109,9.18257077 2.64992453,9.99607688 C2.5497291,9.98493296 2.46066649,9.9515012 2.36047106,9.9515012 C2.17121302,9.9515012 2.01535346,10.11866 2.01535346,10.2969627 C2.01535346,10.3415384 2.02648629,10.3749701 2.03761911,10.4195458 C2.52746345,11.9239749 3.75207428,13.0606547 5.28840424,13.4172601 C4.03039493,14.1973344 2.58312758,14.5985155 1.11359457,14.5985155 C0.779609801,14.5985155 0.445625028,14.5427959 0.122773081,14.5427959 C-0.077617783,14.5427959 -0.233477344,14.7099547 -0.233477344,14.8994014 C-0.233477344,15.0219845 -0.166680389,15.1222797 -0.0664849572,15.2002872 C0.222968513,15.4120216 0.579218938,15.5903243 0.902070885,15.7574831 C2.61652605,16.6489967 4.53137209,17.1170413 6.46848377,17.1170413 C11.3223958,17.1170413 15.4749398,14.5093642 17.4788485,10.0740843 C18.2024821,8.48050386 18.6255295,6.73090853 18.592131,4.98131321 L18.592131,4.61356387 C19.3491632,4.04522399 20.0839297,3.30972532 20.5849068,2.49621921 C20.6183053,2.44049961 20.640571,2.3736361 20.640571,2.29562866 L20.640571,2.29562866 Z" id="Icons/Twitter"></path>
        </g>
    </g>
</svg>